#!OML:ASF F:\VICON\USERDATA\INSTALL\rory3\rory3.ASF
:FULLY-SPECIFIED
:DEGREES
1942
root -0.284761 17.6346 -6.04869 -0.470539 36.9111 -3.64064
lowerback 5.24135 -1.2041 -0.607478
upperback 1.28423 -1.63886 -0.635066
thorax -1.6184 -0.812513 -0.20418
lowerneck -13.3284 -8.8527 -10.6958
upperneck 28.754 -10.6558 2.9964
head 12.5201 -5.48728 1.3265
rclavicle 9.93923e-016 -7.95139e-015
rhumerus 40.0247 -22.0433 1.84506
rradius 67.8331
rwrist 33.2648
rhand -52.4323 -2.26008
rfingers 7.12502
rthumb -24.9218 -30.6552
lclavicle 9.93923e-016 -7.95139e-015
lhumerus -30.7309 10.4306 53.93
lradius 52.0747
lwrist -16.0558
lhand -21.3615 32.2685
lfingers 7.12502
lthumb 5.02533 -297.811
rfemur -23.3387 -1.44751 14.5342
rtibia 25.6757
rfoot -10.1055 -15.821
rtoes 12.8375
lfemur -1.9145 3.18251 -18.4683
ltibia 26.7998
lfoot -20.6498 2.30571
ltoes -13.338
1943
root -0.2758 17.6247 -6.10327 -0.687584 36.9452 -3.82961
lowerback 5.19951 -1.27091 -0.375757
upperback 1.23773 -1.71468 -0.558482
thorax -1.64726 -0.851261 -0.250751
lowerneck -13.4313 -8.87792 -10.5861
upperneck 28.5932 -10.726 3.04418
head 12.476 -5.50027 1.31252
rclavicle -8.42847e-014 -7.15625e-015
rhumerus 40.3758 -20.9114 3.38448
rradius 69.3011
rwrist 33.9328
rhand -52.8226 -1.78815
rfingers 7.12502
rthumb -25.2958 -30.1309
lclavicle -8.42847e-014 -7.15625e-015
lhumerus -30.3709 9.32979 53.9791
lradius 53.913
lwrist -16.5509
lhand -21.4022 30.7737
lfingers 7.12502
lthumb 4.98601 -299.305
rfemur -23.1211 -1.70969 14.6249
rtibia 25.5114
rfoot -10.6802 -15.9161
rtoes 11.4211
lfemur -2.11411 3.27348 -18.4327
ltibia 27.1373
lfoot -20.791 2.22215
ltoes -13.5315
1944
root -0.264364 17.6211 -6.15364 -0.855484 36.888 -3.87858
lowerback 5.15575 -1.28725 -0.210541
upperback 1.19256 -1.72822 -0.560794
thorax -1.67422 -0.8588 -0.345137
lowerneck -13.4951 -8.9141 -10.5083
upperneck 28.4554 -10.8257 3.14868
head 12.4417 -5.52349 1.32129
rclavicle -5.53615e-014 -7.95139e-016
rhumerus 40.7604 -19.8888 4.53361
rradius 70.718
rwrist 34.7178
rhand -53.3565 -0.126973
rfingers 7.12502
rthumb -25.8072 -28.3964
lclavicle -5.53615e-014 -7.95139e-016
lhumerus -30.149 7.54231 53.9864
lradius 56.2218
lwrist -16.6109
lhand -22.0321 29.4838
lfingers 7.12502
lthumb 4.37781 -300.581
rfemur -22.9265 -1.73705 14.5053
rtibia 25.3257
rfoot -11.3976 -16.0508
rtoes 11.0569
lfemur -2.20996 3.38356 -18.5153
ltibia 27.4518
lfoot -20.9783 2.11435
ltoes -12.9291
1945
root -0.253253 17.6147 -6.20075 -0.986678 36.797 -3.83599
lowerback 5.10842 -1.27098 -0.201383
upperback 1.16669 -1.70609 -0.549897
thorax -1.6742 -0.847932 -0.341289
lowerneck -13.6193 -8.98734 -10.3877
upperneck 28.417 -10.9568 3.15676
head 12.4532 -5.56657 1.27799
rclavicle 8.74653e-015 -1.74931e-014
rhumerus 41.0618 -19.076 6.00058
rradius 72.0134
rwrist 34.8772
rhand -53.929 2.17649
rfingers 7.12502
rthumb -26.3554 -26.0121
lclavicle 8.74653e-015 -1.74931e-014
lhumerus -29.9532 5.55126 53.8964
lradius 58.7634
lwrist -16.6671
lhand -22.4388 29.5922
lfingers 7.12502
lthumb 3.98502 -300.465
rfemur -22.7024 -1.65605 14.3042
rtibia 25.1069
rfoot -12.1738 -16.2803
rtoes 10.7828
lfemur -2.25916 3.48311 -18.6844
ltibia 27.7057
lfoot -21.1103 2.10104
ltoes -12.6522
1946
root -0.245538 17.6106 -6.24695 -1.2541 36.7687 -3.88847
lowerback 5.11216 -1.29267 -0.216629
upperback 1.20369 -1.73404 -0.475037
thorax -1.63565 -0.861739 -0.254632
lowerneck -13.7657 -9.06964 -10.3378
upperneck 28.3512 -11.0843 3.18179
head 12.4645 -5.61293 1.25176
rclavicle 5.60076e-014 -9.54166e-015
rhumerus 41.3322 -18.5681 7.79203
rradius 73.1854
rwrist 34.5112
rhand -54.1827 3.71152
rfingers 7.12502
rthumb -26.5982 -24.4405
lclavicle 5.60076e-014 -9.54166e-015
lhumerus -29.3577 4.39869 53.6694
lradius 60.7851
lwrist -17.3289
lhand -22.299 29.1562
lfingers 7.12502
lthumb 4.12002 -300.904
rfemur -22.3817 -1.54873 14.1955
rtibia 24.9021
rfoot -12.8033 -16.6039
rtoes 10.6959
lfemur -2.21099 3.50197 -18.7551
ltibia 27.9151
lfoot -21.2182 2.06656
ltoes -12.1975
1947
root -0.239778 17.6068 -6.29276 -1.52208 36.8097 -4.06344
lowerback 5.03609 -1.33459 -0.159282
upperback 1.22563 -1.78425 -0.347793
thorax -1.56853 -0.887057 -0.155313
lowerneck -13.9642 -9.16071 -10.3738
upperneck 28.3569 -11.1945 3.19634
head 12.5201 -5.66034 1.23437
rclavicle 3.28989e-014 1.19271e-014
rhumerus 42.0293 -17.926 8.7628
rradius 73.9784
rwrist 34.8128
rhand -54.4609 4.54286
rfingers 7.12502
rthumb -26.8644 -23.5685
lclavicle 3.28989e-014 1.19271e-014
lhumerus -28.4819 3.6992 53.4185
lradius 62.4603
lwrist -18.2341
lhand -22.6907 27.4299
lfingers 7.12502
lthumb 3.74176 -302.623
rfemur -22.164 -1.38755 14.169
rtibia 24.6998
rfoot -13.3742 -17.0209
rtoes 11.26
lfemur -2.29933 3.7538 -18.7094
ltibia 28.1369
lfoot -21.2377 2.10801
ltoes -13.0269
1948
root -0.233507 17.597 -6.33891 -1.69973 36.8711 -4.11913
lowerback 4.96062 -1.3289 -0.118906
upperback 1.2397 -1.77373 -0.309482
thorax -1.51195 -0.882019 -0.141438
lowerneck -14.1143 -9.257 -10.3438
upperneck 28.3443 -11.3395 3.22906
head 12.5572 -5.71474 1.20997
rclavicle 3.89121e-014 1.43125e-014
rhumerus 42.9072 -17.0334 8.94657
rradius 74.3134
rwrist 35.9418
rhand -54.9686 5.34421
rfingers 7.12502
rthumb -27.3502 -22.6914
lclavicle 3.89121e-014 1.43125e-014
lhumerus -27.4947 2.64077 53.0493
lradius 64.3287
lwrist -19.1868
lhand -22.92 25.9563
lfingers 7.12502
lthumb 3.52035 -304.093
rfemur -21.9937 -1.3051 14.0285
rtibia 24.4933
rfoot -13.9158 -17.3486
rtoes 11.6405
lfemur -2.455 4.20914 -18.7926
ltibia 28.3481
lfoot -21.131 2.455
ltoes -16.1836
1949
root -0.229244 17.5904 -6.38181 -1.89512 36.9167 -4.16978
lowerback 4.89845 -1.30248 -0.101762
upperback 1.25557 -1.73716 -0.28963
thorax -1.46077 -0.863879 -0.134736
lowerneck -14.1567 -9.31791 -10.3257
upperneck 28.239 -11.4588 3.33066
head 12.5381 -5.75288 1.22386
rclavicle -1.49089e-014 -6.36111e-015
rhumerus 43.6145 -16.3276 9.24048
rradius 74.5274
rwrist 36.9225
rhand -55.284 5.63981
rfingers 7.12502
rthumb -27.6517 -22.3479
lclavicle -1.49089e-014 -6.36111e-015
lhumerus -26.4484 1.22225 52.4632
lradius 66.3372
lwrist -19.8892
lhand -23.0357 25.127
lfingers 7.12502
lthumb 3.40862 -304.921
rfemur -21.7646 -1.30848 13.9379
rtibia 24.2384
rfoot -14.1728 -17.5788
rtoes 11.543
lfemur -2.55735 4.5243 -18.8417
ltibia 28.5674
lfoot -21.1136 2.5892
ltoes -17.9408
1950
root -0.225222 17.59 -6.41929 -2.21693 36.9576 -4.32881
lowerback 4.82919 -1.2786 -0.0695286
upperback 1.31097 -1.70229 -0.229915
thorax -1.3643 -0.846558 -0.0962211
lowerneck -14.3398 -9.35964 -10.3712
upperneck 28.2651 -11.5516 3.52162
head 12.6103 -5.77096 1.27746
rclavicle 3.36443e-014 -2.38542e-015
rhumerus 44.1972 -15.8744 9.54608
rradius 74.6494
rwrist 37.8723
rhand -55.6755 5.75998
rfingers 7.12502
rthumb -28.0261 -22.1671
lclavicle 3.36443e-014 -2.38542e-015
lhumerus -25.1801 -0.0222141 51.73
lradius 68.2165
lwrist -20.4894
lhand -23.7486 24.5819
lfingers 7.12502
lthumb 2.72016 -305.456
rfemur -21.4399 -1.25985 13.9535
rtibia 23.994
rfoot -14.3301 -17.8216
rtoes 11.5501
lfemur -2.4653 4.38548 -18.7445
ltibia 28.7613
lfoot -21.23 2.20058
ltoes -16.012
1951
root -0.219978 17.5924 -6.46015 -2.49505 37.0499 -4.59792
lowerback 4.7252 -1.2486 0.108597
upperback 1.27737 -1.65346 -0.182568
thorax -1.3443 -0.822727 -0.152297
lowerneck -14.4199 -9.45475 -10.403
upperneck 28.3288 -11.731 3.68961
head 12.6817 -5.83042 1.30947
rclavicle 4.09993e-014 -1.19271e-014
rhumerus 44.5407 -15.521 9.90875
rradius 74.6672
rwrist 38.4607
rhand -56.1044 6.21355
rfingers 7.12502
rthumb -28.436 -21.6458
lclavicle 4.09993e-014 -1.19271e-014
lhumerus -23.741 -1.2318 50.8893
lradius 69.9658
lwrist -21.2658
lhand -24.4431 23.9881
lfingers 7.12502
lthumb 2.04945 -306.042
rfemur -21.2081 -1.07845 14.0114
rtibia 23.7484
rfoot -14.6421 -18.0693
rtoes 12.109
lfemur -2.4357 3.8826 -18.5666
ltibia 28.9358
lfoot -21.4323 1.51698
ltoes -11.3425
1952
root -0.215921 17.5906 -6.49997 -2.55308 37.1287 -4.58784
lowerback 4.57076 -1.17108 0.0480967
upperback 1.23397 -1.5543 -0.225689
thorax -1.30181 -0.773357 -0.171239
lowerneck -14.4231 -9.59873 -10.3399
upperneck 28.3367 -11.9894 3.78147
head 12.7088 -5.92631 1.28834
rclavicle -1.50082e-014 1.59028e-015
rhumerus 44.6081 -15.3864 10.3783
rradius 74.594
rwrist 38.6305
rhand -56.4962 6.92507
rfingers 7.12502
rthumb -28.8103 -20.8712
lclavicle -1.50082e-014 1.59028e-015
lhumerus -22.0747 -2.38568 49.9121
lradius 71.554
lwrist -22.178
lhand -25.1217 23.746
lfingers 7.12502
lthumb 1.39407 -306.279
rfemur -21.0623 -0.95818 13.8325
rtibia 23.4933
rfoot -14.6911 -18.2144
rtoes 12.5307
lfemur -2.51032 3.6786 -18.6495
ltibia 29.0963
lfoot -21.5588 1.11453
ltoes -9.28612
1953
root -0.214418 17.5885 -6.53233 -2.73622 37.1596 -4.50912
lowerback 4.47219 -1.09488 -0.19473
upperback 1.31867 -1.46321 -0.243208
thorax -1.15392 -0.727479 -0.0614992
lowerneck -14.6833 -9.71425 -10.3544
upperneck 28.4373 -12.1689 3.89082
head 12.8279 -5.98647 1.28583
rclavicle -7.04692e-014 3.18055e-015
rhumerus 44.7708 -15.4225 10.5732
rradius 74.3282
rwrist 38.7853
rhand -56.5592 7.35081
rfingers 7.12502
rthumb -28.8705 -20.4351
lclavicle -7.04692e-014 3.18055e-015
lhumerus -20.2164 -3.10588 48.8305
lradius 72.9045
lwrist -23.1518
lhand -26.0101 23.4118
lfingers 7.12502
lthumb 0.536023 -306.609
rfemur -20.7454 -0.712271 13.6093
rtibia 23.2581
rfoot -14.6685 -18.3977
rtoes 13.1253
lfemur -2.45222 3.77616 -18.7613
ltibia 29.2575
lfoot -21.5908 0.957195
ltoes -9.60434
1954
root -0.216185 17.5897 -6.56434 -3.17583 37.2095 -4.71127
lowerback 4.54644 -1.04188 -0.266415
upperback 1.3999 -1.39451 -0.192876
thorax -1.10908 -0.693012 0.0270179
lowerneck -14.9076 -9.81846 -10.4259
upperneck 28.5069 -12.3402 4.06715
head 12.9368 -6.04115 1.32063
rclavicle -9.20373e-014 8.74653e-015
rhumerus 45.0094 -15.4314 10.4329
rradius 73.8639
rwrist 38.9089
rhand -56.462 7.23115
rfingers 7.12502
rthumb -28.7777 -20.5706
lclavicle -9.20373e-014 8.74653e-015
lhumerus -18.3164 -3.71571 47.5555
lradius 74.1599
lwrist -23.8322
lhand -26.8443 22.9843
lfingers 7.12502
lthumb -0.269675 -307.036
rfemur -20.3271 -0.355401 13.6407
rtibia 23.017
rfoot -14.5876 -18.7564
rtoes 13.9423
lfemur -2.34085 3.81593 -18.6144
ltibia 29.4118
lfoot -21.5618 0.869173
ltoes -9.34716
1955
root -0.218259 17.5891 -6.59656 -3.60818 37.3509 -4.96254
lowerback 4.63278 -1.02378 -0.28895
upperback 1.43786 -1.37064 -0.148867
thorax -1.11676 -0.680988 0.0846975
lowerneck -15.0268 -9.93197 -10.5496
upperneck 28.5819 -12.5431 4.30938
head 13.0396 -6.10877 1.3876
rclavicle -2.34069e-014 3.18055e-015
rhumerus 45.1914 -15.5133 10.1241
rradius 73.2585
rwrist 38.7565
rhand -56.3552 7.14477
rfingers 7.12502
rthumb -28.6756 -20.6743
lclavicle -2.34069e-014 3.18055e-015
lhumerus -16.351 -4.09085 46.2084
lradius 75.2839
lwrist -24.2156
lhand -27.833 22.9226
lfingers 7.12502
lthumb -1.22463 -307.101
rfemur -19.8677 -0.111929 13.7087
rtibia 22.661
rfoot -14.3833 -19.1645
rtoes 14.7869
lfemur -2.2681 3.742 -18.4362
ltibia 29.5748
lfoot -21.526 0.769399
ltoes -9.00134
1956
root -0.217039 17.5936 -6.62524 -4.30024 37.5118 -5.58363
lowerback 4.70706 -1.03245 -0.00528994
upperback 1.49615 -1.36696 -0.0194429
thorax -1.10191 -0.679139 0.0590073
lowerneck -15.1792 -10.0405 -10.8277
upperneck 28.6697 -12.7274 4.66072
head 13.1766 -6.16911 1.52138
rclavicle -4.05024e-014 3.97569e-015
rhumerus 45.2937 -15.7495 9.84499
rradius 72.5284
rwrist 38.3722
rhand -56.1347 6.92956
rfingers 7.12502
rthumb -28.465 -20.9249
lclavicle -4.05024e-014 3.97569e-015
lhumerus -14.2458 -4.01005 44.9279
lradius 76.1451
lwrist -24.6217
lhand -28.7643 22.653
lfingers 7.12502
lthumb -2.12409 -307.378
rfemur -19.3454 0.257864 14.0314
rtibia 22.2342
rfoot -14.0916 -19.7088
rtoes 15.5757
lfemur -2.10897 3.55148 -17.9305
ltibia 29.7488
lfoot -21.5533 0.561163
ltoes -8.45178
